# xmcd
#
# Track frame offsets:
#	150
#	11457
#	26030
#	37338
#	47470
#	55415
#	65365
#	80927
#	91538
#	104644
#	120669
#	130194
#	145443
#	156499
#
# Disc length: 2218 seconds
#
# Revision: 2
# Processed by: cddbd v1.5.2PL0 Copyright (c) Steve Scherf et al.
# Submitted via: EZCDAudioConverter 7.1.8.1
#
DISCID=c608a80e
DTITLE=仙杜拉 - 娛樂寶典 原音重現系列～啼笑因緣 好彩又到Sunday (EZ-WAV)
DYEAR=1974
DGENRE=World Pop
TTITLE0=啼笑因緣 (主題曲)
TTITLE1=送郎 (啼笑因緣插曲)
TTITLE2=想郎 (啼笑因緣插曲)
TTITLE3=我和你 (啼笑因緣插曲)
TTITLE4=賣唱姑娘 (啼笑因緣插曲)
TTITLE5=金蓮自嘆 (啼笑因緣插曲)
TTITLE6=啼笑因緣主題曲音樂
TTITLE7=好彩又到Sunday
TTITLE8=夢裡訴相思
TTITLE9=相思淚
TTITLE10=恭喜發財
TTITLE11=苦酒嘗透
TTITLE12=薄命花
TTITLE13=兩地相思
EXTD=
EXTT0=
EXTT1=
EXTT2=
EXTT3=
EXTT4=
EXTT5=
EXTT6=
EXTT7=
EXTT8=
EXTT9=
EXTT10=
EXTT11=
EXTT12=
EXTT13=
PLAYORDER=
